<svg xmlns="http://www.w3.org/2000/svg" width="21.46" height="22" viewBox="0 0 21.46 22">
  <defs>
    <style>
      .cls-1 {
        fill: #1e272e;
      }
    </style>
  </defs>
  <path id="Cart" class="cls-1" d="M-1094.25-336.833a1.832,1.832,0,0,1,1.833-1.833,1.833,1.833,0,0,1,1.833,1.833,1.833,1.833,0,0,1-1.833,1.833A1.833,1.833,0,0,1-1094.25-336.833Zm-9.167,0a1.833,1.833,0,0,1,1.834-1.833,1.833,1.833,0,0,1,1.833,1.833,1.833,1.833,0,0,1-1.833,1.833A1.834,1.834,0,0,1-1103.417-336.833Zm3.261-2.751a4.582,4.582,0,0,1-4.552-4.048l-1.261-10.725a.916.916,0,0,0-.91-.809h-.2a.917.917,0,0,1-.917-.917.917.917,0,0,1,.917-.917h.2a2.751,2.751,0,0,1,2.73,2.429l.038.322h14.821a2.743,2.743,0,0,1,2.111.987,2.749,2.749,0,0,1,.6,2.251l-.719,3.991a4.584,4.584,0,0,1-4.511,3.77h-10.927a2.749,2.749,0,0,0,2.585,1.833h9.572a.917.917,0,0,1,.917.917.916.916,0,0,1-.917.917Zm-2.877-5.5h11.218a2.75,2.75,0,0,0,2.71-2.262l.721-3.991a.916.916,0,0,0-.2-.753.917.917,0,0,0-.707-.327h-14.6Z" transform="translate(1108 357)"/>
</svg>
